<svg width="16" height="16" viewBox="0 0 16 16" fill="none" xmlns="http://www.w3.org/2000/svg">
<path d="M6.87502 15.3L0.275016 8.7C0.175016 8.6 0.104015 8.49167 0.0620154 8.375C0.0200154 8.25833 -0.000651042 8.13333 1.56251e-05 8C1.56251e-05 7.86667 0.0210158 7.74167 0.0630158 7.625C0.105016 7.50833 0.175682 7.4 0.275016 7.3L6.87502 0.699999C7.05835 0.516666 7.28768 0.421 7.56302 0.413C7.83835 0.405 8.07568 0.500666 8.27501 0.699999C8.47501 0.883333 8.57935 1.11267 8.58802 1.388C8.59668 1.66333 8.50068 1.90067 8.30002 2.1L3.40002 7H14.575C14.8583 7 15.096 7.096 15.288 7.288C15.48 7.48 15.5757 7.71733 15.575 8C15.575 8.28333 15.4793 8.521 15.288 8.713C15.0967 8.905 14.859 9.00067 14.575 9H3.40002L8.30002 13.9C8.48335 14.0833 8.57935 14.3167 8.58802 14.6C8.59668 14.8833 8.50068 15.1167 8.30002 15.3C8.11668 15.5 7.88335 15.6 7.60002 15.6C7.31668 15.6 7.07502 15.5 6.87502 15.3Z" fill="white"/>
</svg>
