<svg width="21" height="21" viewBox="0 0 21 21" fill="none" xmlns="http://www.w3.org/2000/svg">
<path d="M8.8 0.399994C7.52696 0.399994 6.30606 0.905707 5.40589 1.80588C4.50571 2.70606 4 3.92695 4 5.19999C4 6.47303 4.50571 7.69393 5.40589 8.59411C6.30606 9.49428 7.52696 9.99999 8.8 9.99999C10.073 9.99999 11.2939 9.49428 12.1941 8.59411C13.0943 7.69393 13.6 6.47303 13.6 5.19999C13.6 3.92695 13.0943 2.70606 12.1941 1.80588C11.2939 0.905707 10.073 0.399994 8.8 0.399994ZM2.8108 11.2C2.49477 11.1987 2.18159 11.2599 1.88923 11.3799C1.59687 11.4999 1.33109 11.6765 1.10711 11.8995C0.883138 12.1224 0.705383 12.3874 0.584041 12.6792C0.462699 12.9711 0.400157 13.284 0.400002 13.6C0.400002 15.6292 1.3996 17.1592 2.962 18.1564C4.5004 19.1368 6.574 19.6 8.8 19.6C9.292 19.6 9.7792 19.5772 10.252 19.5316C9.30991 18.3609 8.79745 16.9027 8.8 15.4C8.8 13.804 9.3664 12.34 10.3084 11.2H2.812H2.8108ZM14.65 13C14.65 12.8011 14.729 12.6103 14.8697 12.4697C15.0103 12.329 15.2011 12.25 15.4 12.25C15.5989 12.25 15.7897 12.329 15.9303 12.4697C16.071 12.6103 16.15 12.8011 16.15 13C16.15 13.1989 16.071 13.3897 15.9303 13.5303C15.7897 13.671 15.5989 13.75 15.4 13.75C15.2011 13.75 15.0103 13.671 14.8697 13.5303C14.729 13.3897 14.65 13.1989 14.65 13ZM16 17.8C16 17.9591 15.9368 18.1117 15.8243 18.2243C15.7117 18.3368 15.5591 18.4 15.4 18.4C15.2409 18.4 15.0883 18.3368 14.9757 18.2243C14.8632 18.1117 14.8 17.9591 14.8 17.8V15.4C14.8 15.2409 14.8632 15.0883 14.9757 14.9757C15.0883 14.8632 15.2409 14.8 15.4 14.8C15.5591 14.8 15.7117 14.8632 15.8243 14.9757C15.9368 15.0883 16 15.2409 16 15.4V17.8ZM10 15.4C10 13.9678 10.5689 12.5943 11.5816 11.5816C12.5943 10.5689 13.9678 9.99999 15.4 9.99999C16.8322 9.99999 18.2057 10.5689 19.2184 11.5816C20.2311 12.5943 20.8 13.9678 20.8 15.4C20.8 16.8322 20.2311 18.2057 19.2184 19.2184C18.2057 20.2311 16.8322 20.8 15.4 20.8C13.9678 20.8 12.5943 20.2311 11.5816 19.2184C10.5689 18.2057 10 16.8322 10 15.4ZM11.2 15.4C11.2 15.9515 11.3086 16.4977 11.5197 17.0073C11.7308 17.5168 12.0401 17.9798 12.4302 18.3698C12.8202 18.7598 13.2832 19.0692 13.7927 19.2803C14.3023 19.4914 14.8484 19.6 15.4 19.6C15.9516 19.6 16.4977 19.4914 17.0073 19.2803C17.5168 19.0692 17.9798 18.7598 18.3699 18.3698C18.7599 17.9798 19.0692 17.5168 19.2803 17.0073C19.4914 16.4977 19.6 15.9515 19.6 15.4C19.6 14.2861 19.1575 13.2178 18.3699 12.4301C17.5822 11.6425 16.5139 11.2 15.4 11.2C14.2861 11.2 13.2178 11.6425 12.4302 12.4301C11.6425 13.2178 11.2 14.2861 11.2 15.4Z" fill="#111111"/>
</svg>
