<svg width="260" height="200" viewBox="0 0 260 200" fill="none" xmlns="http://www.w3.org/2000/svg">
<path d="M59.7663 101.995C58.5398 86.4264 28.3428 60.8899 38.9686 47.9259C52.1727 31.8202 102.369 54.6845 124.826 50.2849C148.907 45.5878 190.799 1.74835 211.983 11.941C237.128 24.07 202.787 82.747 206.31 107.214C208.288 120.966 232.405 151.45 221.513 162.013C204.238 178.714 151.182 151.523 125.265 153.376C105.135 154.816 58.4354 181.193 44.4955 169.095C30.0702 156.57 61.1493 119.598 59.7663 101.995Z" fill="#0FA3B1"/>
<path opacity="0.9" d="M59.7663 101.995C58.5398 86.4264 28.3428 60.8899 38.9686 47.9259C52.1727 31.8202 102.369 54.6845 124.826 50.2849C148.907 45.5878 190.799 1.74835 211.983 11.941C237.128 24.07 202.787 82.747 206.31 107.214C208.288 120.966 232.405 151.45 221.513 162.013C204.238 178.714 151.182 151.523 125.265 153.376C105.135 154.816 58.4354 181.193 44.4955 169.095C30.0702 156.57 61.1493 119.598 59.7663 101.995Z" fill="white"/>
<path d="M130.525 194.439C186.412 194.439 231.716 191.793 231.716 188.531C231.716 185.268 186.412 182.623 130.525 182.623C74.6392 182.623 29.3345 185.268 29.3345 188.531C29.3345 191.793 74.6392 194.439 130.525 194.439Z" fill="#F5F5F5"/>
<path d="M209.802 170.77C209.802 170.77 206.368 163.286 210.287 155.902C214.207 148.517 215.35 146.779 212.85 145.271C210.35 143.762 209.196 151.173 209.196 151.173C209.196 151.173 207.109 146.069 208.826 140.735C210.543 135.401 211.66 126.696 209.285 125.762C206.91 124.828 208.831 136.612 206.77 140.631C205.718 137.81 205.039 134.864 204.75 131.868C204.468 127.578 204.912 120.731 203.033 118.972C201.154 117.213 199.959 118.45 201.801 127.896C202.908 133.554 203.521 139.298 203.633 145.062C203.633 145.062 199.557 132.641 196.848 132.28C194.14 131.92 194.119 135.934 196.462 139.425C198.805 142.917 203.294 149.159 204.03 152.394C204.03 152.394 199.562 143.052 195.538 145.912C191.514 148.772 199.04 154.425 202.391 156.465C205.741 158.506 208.074 171.287 208.074 171.287L209.802 170.77Z" fill="#0FA3B1"/>
<path opacity="0.2" d="M209.802 170.77C209.802 170.77 206.368 163.286 210.287 155.902C214.207 148.517 215.35 146.779 212.85 145.271C210.35 143.762 209.196 151.173 209.196 151.173C209.196 151.173 207.109 146.069 208.826 140.735C210.543 135.401 211.66 126.696 209.285 125.762C206.91 124.828 208.831 136.612 206.77 140.631C205.718 137.81 205.039 134.864 204.75 131.868C204.468 127.578 204.912 120.731 203.033 118.972C201.154 117.213 199.959 118.45 201.801 127.896C202.908 133.554 203.521 139.298 203.633 145.062C203.633 145.062 199.557 132.641 196.848 132.28C194.14 131.92 194.119 135.934 196.462 139.425C198.805 142.917 203.294 149.159 204.03 152.394C204.03 152.394 199.562 143.052 195.538 145.912C191.514 148.772 199.04 154.425 202.391 156.465C205.741 158.506 208.074 171.287 208.074 171.287L209.802 170.77Z" fill="black"/>
<path d="M207.088 173.844C207.088 173.844 210.433 166.303 206.425 158.981C202.417 151.659 201.253 149.936 203.737 148.386C206.221 146.836 207.453 154.237 207.453 154.237C207.453 154.237 209.499 149.106 207.698 143.799C205.898 138.491 204.698 129.801 207.062 128.836C209.426 127.87 207.646 139.681 209.755 143.663C210.773 140.83 211.415 137.875 211.665 134.874C211.9 130.579 211.373 123.737 213.231 121.952C215.089 120.167 216.305 121.368 214.572 130.861C213.533 136.532 212.99 142.282 212.949 148.047C212.949 148.047 216.873 135.568 219.603 135.167C222.332 134.765 222.374 138.783 220.078 142.306C217.782 145.829 213.345 152.144 212.641 155.354C212.641 155.354 216.999 145.959 221.054 148.752C225.109 151.544 217.656 157.311 214.332 159.398C211.007 161.486 208.81 174.314 208.81 174.314L207.088 173.844Z" fill="#0FA3B1"/>
<path d="M222.505 168.469H194.896L197.13 188.228H220.271L222.505 168.469Z" fill="#263238"/>
<path d="M81.2737 44.2309H63.0542C62.3525 44.2309 61.6794 44.5097 61.1832 45.0059C60.687 45.5021 60.4082 46.1752 60.4082 46.8769V64.5902C60.4082 65.2919 60.687 65.965 61.1832 66.4612C61.6794 66.9574 62.3525 67.2362 63.0542 67.2362H68.8838L64.9592 72.57L71.7438 67.2362H81.2685C81.9703 67.2362 82.6433 66.9574 83.1395 66.4612C83.6357 65.965 83.9145 65.2919 83.9145 64.5902V46.8769C83.9145 46.1761 83.6365 45.5038 83.1414 45.0078C82.6463 44.5117 81.9746 44.2323 81.2737 44.2309Z" fill="#0FA3B1"/>
<path opacity="0.6" d="M81.2737 44.2309H63.0542C62.3525 44.2309 61.6794 44.5097 61.1832 45.0059C60.687 45.5021 60.4082 46.1752 60.4082 46.8769V64.5902C60.4082 65.2919 60.687 65.965 61.1832 66.4612C61.6794 66.9574 62.3525 67.2362 63.0542 67.2362H68.8838L64.9592 72.57L71.7438 67.2362H81.2685C81.9703 67.2362 82.6433 66.9574 83.1395 66.4612C83.6357 65.965 83.9145 65.2919 83.9145 64.5902V46.8769C83.9145 46.1761 83.6365 45.5038 83.1414 45.0078C82.6463 44.5117 81.9746 44.2323 81.2737 44.2309Z" fill="white"/>
<path d="M72.1666 64.0056C76.7351 64.0056 80.4387 60.3021 80.4387 55.7335C80.4387 51.165 76.7351 47.4614 72.1666 47.4614C67.598 47.4614 63.8945 51.165 63.8945 55.7335C63.8945 60.3021 67.598 64.0056 72.1666 64.0056Z" fill="#0FA3B1"/>
<path opacity="0.2" d="M79.0668 57.3575C79.9666 53.5451 77.6055 49.7251 73.7931 48.8253C69.9807 47.9255 66.1608 50.2866 65.261 54.099C64.3611 57.9114 66.7223 61.7314 70.5347 62.6312C74.347 63.531 78.167 61.1699 79.0668 57.3575Z" fill="black"/>
<path d="M71.2846 59.1207C71.1885 59.1227 71.0929 59.1058 71.0033 59.0709C70.9138 59.036 70.832 58.9837 70.7627 58.9171L67.7513 55.9684C67.6129 55.8341 67.5335 55.6504 67.5305 55.4576C67.5276 55.2647 67.6014 55.0787 67.7356 54.9402C67.8699 54.8018 68.0537 54.7224 68.2465 54.7195C68.4393 54.7165 68.6254 54.7903 68.7638 54.9246L71.2324 57.341L75.5015 52.576C75.6324 52.4441 75.809 52.3675 75.9947 52.3619C76.1805 52.3563 76.3613 52.4222 76.4999 52.5461C76.6385 52.6699 76.7242 52.8423 76.7395 53.0275C76.7547 53.2127 76.6983 53.3967 76.5818 53.5416L71.8065 58.8701C71.7406 58.9438 71.6603 59.0032 71.5705 59.0445C71.4807 59.0858 71.3834 59.1081 71.2846 59.1102V59.1207Z" fill="white"/>
<path d="M48.535 176.36L63.5709 174.878V157.921H69.531V174.873L84.6295 176.36C85.353 176.43 86.0244 176.767 86.5127 177.306C87.001 177.844 87.2711 178.545 87.2703 179.272V181.532H45.8942V179.272C45.8934 178.545 46.1635 177.844 46.6518 177.306C47.1401 176.767 47.8115 176.43 48.535 176.36Z" fill="#263238"/>
<path opacity="0.1" d="M48.535 176.36L63.5709 174.878V157.921H69.531V174.873L84.6295 176.36C85.353 176.43 86.0244 176.767 86.5127 177.306C87.001 177.844 87.2711 178.545 87.2703 179.272V181.532H45.8942V179.272C45.8934 178.545 46.1635 177.844 46.6518 177.306C47.1401 176.767 47.8115 176.43 48.535 176.36Z" fill="white"/>
<path d="M85.6784 188.228C87.8316 188.228 89.577 186.483 89.577 184.329C89.577 182.176 87.8316 180.431 85.6784 180.431C83.5253 180.431 81.7798 182.176 81.7798 184.329C81.7798 186.483 83.5253 188.228 85.6784 188.228Z" fill="#263238"/>
<path d="M47.4859 188.228C49.6391 188.228 51.3845 186.483 51.3845 184.329C51.3845 182.176 49.6391 180.431 47.4859 180.431C45.3328 180.431 43.5873 182.176 43.5873 184.329C43.5873 186.483 45.3328 188.228 47.4859 188.228Z" fill="#263238"/>
<path d="M68.3985 162.462H64.6826C64.1109 162.462 63.5627 162.235 63.1585 161.831C62.7542 161.426 62.5272 160.878 62.5272 160.306V143.637H70.554V160.306C70.554 160.878 70.3269 161.426 69.9226 161.831C69.5184 162.235 68.9702 162.462 68.3985 162.462Z" fill="#263238"/>
<path opacity="0.2" d="M68.3985 162.462H64.6826C64.1109 162.462 63.5627 162.235 63.1585 161.831C62.7542 161.426 62.5272 160.878 62.5272 160.306V143.637H70.554V160.306C70.554 160.878 70.3269 161.426 69.9226 161.831C69.5184 162.235 68.9702 162.462 68.3985 162.462Z" fill="white"/>
<path d="M45.7377 110.966C45.7377 110.966 50.2051 138.825 59.0252 143.642H50.059C50.059 143.642 41.1867 134.144 38.5146 110.966H45.7377Z" fill="#263238"/>
<path opacity="0.1" d="M45.7377 110.966C45.7377 110.966 50.2051 138.825 59.0252 143.642H50.059C50.059 143.642 41.1867 134.144 38.5146 110.966H45.7377Z" fill="white"/>
<path d="M49.6309 139.702H84.5564C85.2485 139.702 85.9122 139.977 86.4016 140.466C86.8909 140.956 87.1659 141.619 87.1659 142.311V145.803H47.0214V142.311C47.0214 141.619 47.2963 140.956 47.7857 140.466C48.2751 139.977 48.9388 139.702 49.6309 139.702Z" fill="#0FA3B1"/>
<path d="M87.7713 142.75H46.3795C45.8002 142.75 45.3305 143.219 45.3305 143.799V144.749C45.3305 145.328 45.8002 145.798 46.3795 145.798H87.7713C88.3507 145.798 88.8203 145.328 88.8203 144.749V143.799C88.8203 143.219 88.3507 142.75 87.7713 142.75Z" fill="#263238"/>
<path opacity="0.6" d="M87.7713 142.75H46.3795C45.8002 142.75 45.3305 143.219 45.3305 143.799V144.749C45.3305 145.328 45.8002 145.798 46.3795 145.798H87.7713C88.3507 145.798 88.8203 145.328 88.8203 144.749V143.799C88.8203 143.219 88.3507 142.75 87.7713 142.75Z" fill="white"/>
<path d="M37.4551 116.634H51.8021C56.0086 116.634 58.7381 113.262 57.9031 109.103L56.7862 103.55C55.9512 99.3747 51.8647 96.0241 47.6634 96.0241H33.3164C29.1099 96.0241 26.3804 99.3956 27.2154 103.55L28.3323 109.103C29.1673 113.252 33.2486 116.634 37.4551 116.634Z" fill="#0FA3B1"/>
<path d="M113.584 163.297L110.296 164.586L107.932 160.129L105.782 156.074L109.425 153.892L111.627 158.866L113.584 163.297Z" fill="#E4897B"/>
<path opacity="0.2" d="M111.627 158.866L107.932 160.129L105.782 156.074L109.425 153.892L111.627 158.866Z" fill="black"/>
<path d="M110.944 156.434L106.471 158.835C106.471 158.835 89.5667 129.113 86.9676 129.363C84.3686 129.614 59.7089 145.323 52.1883 139.519C44.6677 133.716 51.9848 116.242 51.9848 116.242C51.9848 116.242 67.5426 111.796 69.2074 115.199C69.6462 116.218 70.0193 117.264 70.3243 118.33C70.6531 119.4 70.9036 120.303 70.9036 120.303C71.3785 120.11 86.7432 113.81 93.601 117.171C100.6 120.626 110.944 156.434 110.944 156.434Z" fill="#263238"/>
<path opacity="0.3" d="M110.944 156.434L106.471 158.835C106.471 158.835 89.5667 129.113 86.9676 129.363C84.3686 129.614 59.7089 145.323 52.1883 139.519C44.6677 133.716 51.9848 116.242 51.9848 116.242C51.9848 116.242 67.5426 111.796 69.2074 115.199C69.6462 116.218 70.0193 117.264 70.3243 118.33C70.6531 119.4 70.9036 120.303 70.9036 120.303C71.3785 120.11 86.7432 113.81 93.601 117.171C100.6 120.626 110.944 156.434 110.944 156.434Z" fill="white"/>
<path d="M86.644 180.671L83.1369 180.269L83.116 175.321L83.1108 170.781L87.3538 170.583L86.978 175.922L86.644 180.671Z" fill="#E4897B"/>
<path opacity="0.2" d="M86.9676 176.031L83.1055 175.415V170.828L87.3486 170.603L86.9676 176.031Z" fill="black"/>
<path d="M104.284 157.358L110.829 154.08L111.513 156.857L106.555 159.414L104.284 157.358Z" fill="#0FA3B1"/>
<path d="M63.8057 139.566C63.8057 139.566 64.8808 139.446 81.4197 136.383C81.4197 136.383 81.7955 157.53 82.5784 173.296L87.6721 173.458C87.6721 173.458 94.9787 138.491 94.1175 133.189C93.2564 127.886 86.9727 127.192 86.9727 127.192C86.9727 127.192 76.0598 135.694 63.8057 139.566Z" fill="#263238"/>
<path opacity="0.4" d="M63.8057 139.566C63.8057 139.566 64.8808 139.446 81.4197 136.383C81.4197 136.383 81.7955 157.53 82.5784 173.296L87.6721 173.458C87.6721 173.458 94.9787 138.491 94.1175 133.189C93.2564 127.886 86.9727 127.192 86.9727 127.192C86.9727 127.192 76.0598 135.694 63.8057 139.566Z" fill="white"/>
<path opacity="0.3" d="M63.8057 139.566C63.8057 139.566 64.8808 139.446 81.4197 136.383C81.4197 136.383 81.7955 157.53 82.5784 173.296L87.6721 173.458C87.6721 173.458 94.9787 138.491 94.1175 133.189C93.2564 127.886 86.9727 127.192 86.9727 127.192C86.9727 127.192 76.0598 135.694 63.8057 139.566Z" fill="black"/>
<path d="M81.6443 171.887L88.5908 171.726L87.6409 174.586L82.0044 174.638L81.6443 171.887Z" fill="#0FA3B1"/>
<path opacity="0.3" d="M70.9243 120.313L61.9111 123.523C61.9111 123.523 66.65 119.985 70.345 118.341C70.6738 119.41 70.9243 120.313 70.9243 120.313Z" fill="black"/>
<path d="M50.9409 115.167L51.2749 117.667L68.1687 114.082L67.7773 111.128L50.9409 115.167Z" fill="#263238"/>
<path opacity="0.2" d="M50.9409 115.167L51.2749 117.667L68.1687 114.082L67.7773 111.128L50.9409 115.167Z" fill="black"/>
<path d="M56.5385 113.351L55.697 113.507L56.4919 117.792L57.3334 117.636L56.5385 113.351Z" fill="#263238"/>
<path d="M63.9051 112.267L60.219 113.097L60.8489 115.892L64.535 115.062L63.9051 112.267Z" fill="white"/>
<path d="M66.2752 110.521L65.4364 110.675L66.2208 114.946L67.0596 114.792L66.2752 110.521Z" fill="#263238"/>
<path opacity="0.3" d="M56.5385 113.351L55.697 113.507L56.4919 117.792L57.3334 117.636L56.5385 113.351Z" fill="white"/>
<path opacity="0.3" d="M66.2752 110.521L65.4364 110.675L66.2208 114.946L67.0596 114.792L66.2752 110.521Z" fill="white"/>
<path d="M120.119 169.132C119.57 168.963 118.995 168.898 118.422 168.939C118.422 168.939 116.298 168.051 113.725 163.829L111.533 164.116C111.164 164.172 110.822 164.339 110.551 164.596C110.28 164.852 110.095 165.186 110.02 165.551C110.004 165.655 110.004 165.761 110.02 165.865C110.114 166.394 110.243 166.917 110.406 167.43C110.968 169.127 111.632 170.788 112.394 172.404L112.749 172.258L111.617 169.095C111.241 168.015 112.551 168.928 113.245 169.972C113.939 171.016 114.926 172.028 117.269 171.141C119.993 170.076 121.074 169.513 120.119 169.132Z" fill="#263238"/>
<path d="M113.177 162.707C113.177 162.707 116.695 168.051 118.422 168.939C118.422 168.939 116.486 170.504 113.903 167.989C110.568 164.758 110.009 165.865 110.009 165.865C109.98 165.232 110.009 164.597 110.098 163.97C110.364 162.744 113.177 162.707 113.177 162.707Z" fill="#E4897B"/>
<path d="M91.9048 186.892C91.4049 186.604 90.8566 186.409 90.2869 186.318C90.2869 186.318 88.4341 184.956 86.9467 180.248L84.7495 180.008C84.3767 179.973 84.0021 180.054 83.6777 180.241C83.3532 180.428 83.0949 180.712 82.9385 181.052C82.8917 181.145 82.86 181.246 82.8446 181.349C82.8081 181.883 82.8081 182.418 82.8446 182.952C82.9862 184.733 83.2372 186.504 83.5961 188.254L83.9771 188.197L83.6379 184.846C83.5283 183.708 84.5877 184.909 85.0157 186.088C85.4437 187.268 86.1587 188.484 88.6429 188.176C91.5446 187.784 92.7241 187.492 91.9048 186.892Z" fill="#263238"/>
<path d="M86.6857 179.011C86.6857 179.011 88.8359 185.039 90.3024 186.318C90.3024 186.318 88.0531 187.362 86.1273 184.324C83.6482 180.394 82.8497 181.339 82.8497 181.339C82.9665 180.719 83.1412 180.11 83.3716 179.523C83.9248 178.375 86.6857 179.011 86.6857 179.011Z" fill="#E4897B"/>
<path d="M47.2615 72.5439L42.8463 73.4311C42.6738 73.5764 42.47 73.6799 42.2509 73.7333C42.0318 73.7867 41.8033 73.7887 41.5833 73.7391C40.2681 73.2172 38.3736 71.688 38.1335 71.1296C37.7786 70.3415 38.1335 68.0295 39.0625 67.612C39.9915 67.1944 43.1907 71.0565 43.1907 71.0565L47.9348 69.9866L47.2615 72.5439Z" fill="#E4897B"/>
<path d="M61.1858 87.2197C61.1858 87.2197 60.7839 72.9145 59.1295 72.3038C57.4751 71.6932 45.0382 73.3998 45.0382 73.3998L44.7355 70.1328C44.7355 70.1328 59.2078 67.9042 62.0104 69.2246C64.813 70.5451 65.7367 91.8646 65.2253 95.972L61.1858 87.2197Z" fill="#0FA3B1"/>
<path opacity="0.6" d="M61.1858 87.2197C61.1858 87.2197 60.7839 72.9145 59.1295 72.3038C57.4751 71.6932 45.0382 73.3998 45.0382 73.3998L44.7355 70.1328C44.7355 70.1328 59.2078 67.9042 62.0104 69.2246C64.813 70.5451 65.7367 91.8646 65.2253 95.972L61.1858 87.2197Z" fill="white"/>
<path d="M45.2523 73.713L44.3859 70.1223L45.628 69.6735L46.4161 73.8226L45.2523 73.713Z" fill="#0FA3B1"/>
<path opacity="0.7" d="M45.2523 73.713L44.3859 70.1223L45.628 69.6735L46.4161 73.8226L45.2523 73.713Z" fill="white"/>
<path d="M61.1127 85.4348C61.1127 85.4348 60.001 89.7874 54.6463 91.1757C49.2917 92.5639 43.3681 88.9367 43.3681 88.9367L44.5476 99.3225L51.1026 115.684L67.8556 111.316C67.8556 111.316 66.8535 92.2821 61.1127 85.4348Z" fill="#0FA3B1"/>
<path opacity="0.7" d="M61.1127 85.4348C61.1127 85.4348 60.001 89.7874 54.6463 91.1757C49.2917 92.5639 43.3681 88.9367 43.3681 88.9367L44.5476 99.3225L51.1026 115.684L67.8556 111.316C67.8556 111.316 66.8535 92.2821 61.1127 85.4348Z" fill="white"/>
<path opacity="0.6" d="M64.0243 102.694L65.9853 102.075C66.2025 102.007 66.323 101.775 66.2545 101.558L65.0862 97.8548C65.0177 97.6376 64.7861 97.5171 64.569 97.5857L62.608 98.2043C62.3908 98.2728 62.2703 98.5044 62.3388 98.7216L63.5071 102.425C63.5756 102.642 63.8072 102.762 64.0243 102.694Z" fill="#0FA3B1"/>
<path opacity="0.2" d="M63.625 101.565L65.8547 100.861L64.8922 97.8104L62.6624 98.5139L63.625 101.565Z" fill="black"/>
<path d="M63.5503 96.7074L63.0576 96.8629L63.6244 98.6596L64.1172 98.5042L63.5503 96.7074Z" fill="#263238"/>
<path d="M49.7248 69.1777C45.5966 69.1777 42.8723 73.5512 43.8378 80.4872C44.8033 87.4232 48.6706 89.4221 48.6706 89.4221L48.4253 87.7468C52.7185 88.7211 57.1448 88.9681 61.5197 88.4775C61.5197 88.4775 59.5261 82.8201 60.1733 77.0427C60.1733 77.0427 61.4832 69.1672 49.7248 69.1777Z" fill="#263238"/>
<path opacity="0.2" d="M57.9239 89.7666L59.6097 96.0294L56.6453 93.7695C56.6453 93.7695 59.5314 100.366 60.2986 104.208C60.2986 104.208 57.8039 97.6681 55.6537 94.0827L54.3959 97.6733L49.3387 92.5222C49.3387 92.5222 53.8061 89.0985 57.9239 89.7666Z" fill="black"/>
<path d="M55.4606 91.7863L50.3147 91.9429C52.5954 89.0255 48.4724 83.9422 48.4724 83.9422L53.5557 85.0434C54.7665 90.0745 56.8593 90.2258 56.8593 90.2258L55.4606 91.7863Z" fill="#E4897B"/>
<path opacity="0.2" d="M54.9753 88.6549C53.0117 88.4907 51.1854 87.5813 49.8711 86.1133C49.465 85.3591 48.9972 84.6399 48.4724 83.963L53.5557 85.0695C53.8249 86.3356 54.3048 87.5476 54.9753 88.6549Z" fill="black"/>
<path d="M53.5503 71.3018C57.9813 71.6723 59.2129 74.1618 59.1555 78.7597C59.0877 84.5006 57.4802 88.4514 52.0421 86.7709C44.652 84.4902 46.1864 70.6859 53.5503 71.3018Z" fill="#E4897B"/>
<path d="M56.3112 78.2848C56.6113 78.9768 56.9932 79.6304 57.449 80.2315C57.3031 80.4026 57.1131 80.5305 56.8996 80.6014C56.6862 80.6722 56.4574 80.6833 56.2382 80.6333L56.3112 78.2848Z" fill="#DE5753"/>
<path d="M53.3103 77.5437L54.2706 77.2305C54.2706 77.2305 53.7591 77.9925 53.3103 77.5437Z" fill="#263238"/>
<path d="M53.6444 77.4341C53.4659 77.3464 53.2615 77.3266 53.0695 77.3784C52.8774 77.4303 52.7108 77.5502 52.6006 77.7159C52.7645 77.6412 52.9425 77.6025 53.1225 77.6025C53.3026 77.6025 53.4806 77.6412 53.6444 77.7159V77.4341Z" fill="#263238"/>
<path d="M51.8594 75.3204C51.8101 75.3192 51.7632 75.2985 51.7289 75.263C51.7108 75.2459 51.6963 75.2253 51.6864 75.2024C51.6765 75.1795 51.6714 75.1549 51.6714 75.1299C51.6714 75.105 51.6765 75.0803 51.6864 75.0574C51.6963 75.0345 51.7108 75.0139 51.7289 74.9968C52.02 74.7423 52.3662 74.5588 52.7402 74.461C53.1143 74.3632 53.506 74.3537 53.8844 74.4332C53.9335 74.4436 53.9765 74.473 54.0039 74.5151C54.0313 74.5572 54.0409 74.6085 54.0305 74.6576C54.0201 74.7067 53.9906 74.7497 53.9486 74.7771C53.9065 74.8046 53.8552 74.8141 53.8061 74.8037C53.4903 74.7392 53.1641 74.7466 52.8515 74.8252C52.5389 74.9038 52.248 75.0516 52.0003 75.2578C51.9828 75.2779 51.9611 75.2939 51.9368 75.3047C51.9125 75.3155 51.886 75.3209 51.8594 75.3204Z" fill="#263238"/>
<path d="M58.8111 75.3987C58.7698 75.4003 58.7292 75.3873 58.6963 75.3621C58.4875 75.1707 58.2386 75.0283 57.9677 74.9452C57.6969 74.8622 57.4109 74.8406 57.1306 74.882C57.1067 74.8885 57.0816 74.8902 57.057 74.8871C57.0323 74.8839 57.0085 74.8759 56.987 74.8636C56.9654 74.8512 56.9465 74.8347 56.9313 74.815C56.9161 74.7954 56.9049 74.7729 56.8984 74.7489C56.8919 74.7249 56.8902 74.6999 56.8933 74.6752C56.8965 74.6506 56.9045 74.6268 56.9168 74.6052C56.9292 74.5837 56.9457 74.5647 56.9653 74.5496C56.985 74.5344 57.0075 74.5232 57.0315 74.5167C57.3698 74.4568 57.7172 74.4751 58.0474 74.5701C58.3775 74.6651 58.6816 74.8342 58.9364 75.0647C58.9751 75.0964 58.9999 75.1418 59.0058 75.1914C59.0116 75.2411 58.998 75.291 58.9677 75.3308C58.9488 75.3537 58.9248 75.3718 58.8976 75.3836C58.8704 75.3953 58.8407 75.4005 58.8111 75.3987Z" fill="#263238"/>
<path d="M48.0653 78.3683C48.0653 78.3683 50.44 74.9029 50.3617 72.0638C50.3617 72.0638 59.4479 69.2037 59.14 78.1595C59.14 78.1595 60.6535 70.331 53.0494 69.5012C45.4454 68.6714 44.5634 79.8505 48.2219 83.5038C48.2219 83.5038 46.6092 80.5394 48.0653 78.3683Z" fill="#263238"/>
<path d="M48.7281 79.3651C48.7281 78.8484 48.5232 78.3527 48.1583 77.9868C47.7934 77.6209 47.2982 77.4146 46.7815 77.4132C45.3932 77.4498 44.506 80.2158 47.867 81.1813C48.3472 81.317 48.6655 80.863 48.7281 79.3651Z" fill="#E4897B"/>
<path d="M56.2747 81.9381C55.9497 82.3746 55.6584 82.8352 55.4031 83.3159C55.3144 83.2846 55.2205 83.2585 55.1318 83.222C53.9053 82.7888 53.4773 82.1782 53.3782 81.6563C53.3314 81.3912 53.3512 81.1186 53.4356 80.863C53.4791 80.716 53.5423 80.5755 53.6235 80.4455C54.2612 81.0515 55.0235 81.5111 55.8572 81.792C56.1077 81.8859 56.2747 81.9381 56.2747 81.9381Z" fill="#263238"/>
<path d="M55.8572 81.7815L55.591 82.1834C54.4324 81.7711 53.6757 81.3274 53.4356 80.8525C53.4791 80.7055 53.5423 80.565 53.6235 80.435C54.2612 81.0411 55.0235 81.5006 55.8572 81.7815Z" fill="white"/>
<path d="M55.1318 83.222C53.9053 82.7888 53.4773 82.1782 53.3782 81.6563C53.8421 81.8272 54.2717 82.08 54.6464 82.4026C54.8893 82.6187 55.059 82.9051 55.1318 83.222Z" fill="#DE5753"/>
<path d="M53.4304 71.6306C53.4304 71.6306 51.0349 78.7754 46.4526 78.2848C41.8703 77.7942 49.7249 69.162 49.7249 69.162C49.7249 69.162 57.4542 66.9544 60.8205 71.2496C64.1867 75.5448 59.1556 78.1491 59.1556 78.1491C59.1556 78.1491 59.9072 72.5439 53.4304 71.6306Z" fill="#263238"/>
<path d="M49.7772 77.7107C49.7507 77.7095 49.725 77.701 49.7029 77.6863C49.6809 77.6716 49.6632 77.6512 49.6519 77.6272C49.64 77.594 49.6415 77.5574 49.6561 77.5252C49.6707 77.493 49.6973 77.4679 49.7302 77.455C53.3835 76.0615 53.3 71.1609 53.3 71.1087C53.2985 71.0916 53.3006 71.0744 53.3063 71.0583C53.312 71.0421 53.3211 71.0274 53.333 71.015C53.3448 71.0026 53.3592 70.993 53.3751 70.9866C53.391 70.9803 53.4081 70.9774 53.4252 70.9782C53.4591 70.9793 53.4915 70.9925 53.5165 71.0155C53.5414 71.0385 53.5572 71.0698 53.5609 71.1035C53.5609 71.1557 53.6444 76.239 49.8241 77.7003L49.7772 77.7107Z" fill="#263238"/>
<path d="M57.8092 77.9769L58.7695 77.669C58.7695 77.669 58.2528 78.4257 57.8092 77.9769Z" fill="#263238"/>
<path d="M58.1432 77.8673C57.9642 77.7789 57.7591 77.7593 57.5666 77.8122C57.3742 77.8651 57.2079 77.9869 57.0994 78.1543C57.2608 78.074 57.4376 78.0296 57.6178 78.0242C57.798 78.0188 57.9773 78.0525 58.1432 78.123V77.8673Z" fill="#263238"/>
<path d="M51.04 89.8344L54.9178 91.8072L54.8551 95.7371L49.3126 92.5065L51.04 89.8344Z" fill="#0FA3B1"/>
<path d="M55.5076 89.0933L55.7373 91.4784L58.2685 94.1557L57.924 89.7509L55.5076 89.0933Z" fill="#0FA3B1"/>
<path d="M37.5907 62.1059L35.9728 57.9308C36.0024 57.7075 35.9795 57.4805 35.9062 57.2676C35.8328 57.0548 35.7109 56.8619 35.5501 56.7043C34.4228 55.864 32.0951 55.1021 31.5106 55.1908C30.6599 55.316 28.9011 56.8556 29.0525 57.8629C29.2038 58.8702 34.1723 59.4912 34.1723 59.4912L35.8215 64.0683L37.5907 62.1059Z" fill="#E4897B"/>
<path d="M44.5582 99.3225C44.5582 99.3225 47.6896 96.8331 46.4422 91.3323L43.076 76.1137L37.2934 60.3941L34.4647 61.8241C34.4647 61.8241 39.2139 77.1836 39.6523 78.2222C39.8767 78.7441 40.7692 86.7135 41.9852 92.0525C43.1021 96.9688 44.5582 99.3225 44.5582 99.3225Z" fill="#0FA3B1"/>
<path opacity="0.6" d="M44.5582 99.3225C44.5582 99.3225 47.6896 96.8331 46.4422 91.3323L43.076 76.1137L37.2934 60.3941L34.4647 61.8241C34.4647 61.8241 39.2139 77.1836 39.6523 78.2222C39.8767 78.7441 40.7692 86.7135 41.9852 92.0525C43.1021 96.9688 44.5582 99.3225 44.5582 99.3225Z" fill="white"/>
<path d="M33.9689 61.3753L37.2725 59.7209L37.9927 60.8221L34.1307 62.5339L33.9689 61.3753Z" fill="#0FA3B1"/>
<path opacity="0.7" d="M33.9689 61.3753L37.2725 59.7209L37.9927 60.8221L34.1307 62.5339L33.9689 61.3753Z" fill="white"/>
<path opacity="0.6" d="M51.04 89.8344L54.9178 91.8072L54.8551 95.7371L49.3126 92.5065L51.04 89.8344Z" fill="white"/>
<path opacity="0.6" d="M55.5076 89.0933L55.7373 91.4784L58.2685 94.1557L57.924 89.7509L55.5076 89.0933Z" fill="white"/>
<path d="M165.628 81.6302H149.992V93.78H165.628V81.6302Z" fill="white"/>
<path opacity="0.1" d="M165.628 81.6302H161.62V93.78H165.628V81.6302Z" fill="black"/>
<path d="M149.094 104.51H166.771V82.46H161.077L149.094 88.1957V104.51Z" fill="#0FA3B1"/>
<path opacity="0.2" d="M166.771 82.46H161.077V104.51H166.771V82.46Z" fill="black"/>
<path opacity="0.7" d="M159.193 92.5431H150.916V96.5095H159.193V92.5431Z" fill="white"/>
<path opacity="0.7" d="M159.193 97.8352H150.916V98.404H159.193V97.8352Z" fill="white"/>
<path opacity="0.7" d="M166.218 99.5H161.62V102.866H166.218V99.5Z" fill="white"/>
<path d="M158.984 80.9674H143.348V93.78H158.984V80.9674Z" fill="white"/>
<path opacity="0.1" d="M158.984 80.9674H154.976V93.78H158.984V80.9674Z" fill="black"/>
<path d="M142.451 104.51H160.127V82.46H154.433L142.451 88.1957V104.51Z" fill="#0FA3B1"/>
<path opacity="0.2" d="M160.127 82.46H154.433V104.51H160.127V82.46Z" fill="black"/>
<path opacity="0.7" d="M152.549 92.5431H144.272V96.5095H152.549V92.5431Z" fill="white"/>
<path opacity="0.7" d="M152.549 97.8352H144.272V98.404H152.549V97.8352Z" fill="white"/>
<path opacity="0.7" d="M159.574 99.5H154.976V102.866H159.574V99.5Z" fill="white"/>
<path d="M131.47 188.228H134.669L140.41 108.247H136.167L131.47 188.228Z" fill="#263238"/>
<path opacity="0.1" d="M131.47 188.228H134.669L140.128 112.219L140.41 108.378H136.167L135.943 112.219L131.47 188.228Z" fill="white"/>
<path opacity="0.2" d="M135.943 112.031H140.128L140.41 108.378H136.167L135.943 112.031Z" fill="black"/>
<path d="M108.005 188.228H111.205L111.726 108.247H107.483L108.005 188.228Z" fill="#263238"/>
<path opacity="0.1" d="M107.478 108.378L107.567 121.279L108 188.228H111.199L111.638 121.279L111.721 108.378H107.478Z" fill="white"/>
<path opacity="0.2" d="M107.478 108.378L107.567 121.425H111.638L111.721 108.378H107.478Z" fill="black"/>
<path d="M74.0611 188.228H77.2603L83.0012 108.247H78.7582L74.0611 188.228Z" fill="#263238"/>
<path opacity="0.1" d="M74.0611 188.228H77.2603L82.7246 112.219L83.0012 108.378H78.7582L78.5338 112.219L74.0611 188.228Z" fill="white"/>
<path opacity="0.2" d="M78.5338 112.031H82.7246L83.0012 108.378H78.7582L78.5338 112.031Z" fill="black"/>
<path d="M168.045 188.228H171.244L166.542 108.247H162.298L168.045 188.228Z" fill="#263238"/>
<path opacity="0.1" d="M162.298 108.378L162.585 112.219L168.045 188.228H171.239L166.771 112.219L166.542 108.378H162.298Z" fill="white"/>
<path opacity="0.2" d="M166.542 108.378H162.298L162.585 112.031H166.771L166.542 108.378Z" fill="black"/>
<path d="M168.781 110.251L76.5297 110.251C76.3817 110.251 76.2351 110.222 76.0983 110.165C75.9615 110.109 75.8373 110.026 75.7326 109.921C75.6279 109.816 75.5449 109.692 75.4882 109.555C75.4316 109.418 75.4024 109.272 75.4024 109.124V106.248L169.908 106.248V109.124C169.908 109.272 169.879 109.418 169.822 109.555C169.765 109.692 169.682 109.816 169.578 109.921C169.473 110.026 169.349 110.109 169.212 110.165C169.075 110.222 168.929 110.251 168.781 110.251Z" fill="#0FA3B1"/>
<path opacity="0.4" d="M168.781 110.251L76.5297 110.251C76.3817 110.251 76.2351 110.222 76.0983 110.165C75.9615 110.109 75.8373 110.026 75.7326 109.921C75.6279 109.816 75.5449 109.692 75.4882 109.555C75.4316 109.418 75.4024 109.272 75.4024 109.124V106.248L169.908 106.248V109.124C169.908 109.272 169.879 109.418 169.822 109.555C169.765 109.692 169.682 109.816 169.578 109.921C169.473 110.026 169.349 110.109 169.212 110.165C169.075 110.222 168.929 110.251 168.781 110.251Z" fill="white"/>
<path opacity="0.2" d="M75.4024 108.247L169.908 108.247V106.243L75.4024 106.243V108.247Z" fill="black"/>
<path d="M73.4191 106.765H171.886C172.034 106.766 172.181 106.737 172.318 106.68C172.455 106.624 172.58 106.541 172.684 106.436C172.789 106.331 172.872 106.207 172.929 106.07C172.985 105.933 173.014 105.786 173.013 105.638C173.013 105.339 172.894 105.052 172.683 104.84C172.471 104.629 172.185 104.51 171.886 104.51H73.4191C73.1197 104.51 72.8324 104.629 72.6202 104.84C72.4079 105.051 72.288 105.338 72.2866 105.638C72.2866 105.786 72.316 105.933 72.3729 106.07C72.4299 106.207 72.5134 106.332 72.6186 106.436C72.7239 106.541 72.8488 106.624 72.9861 106.681C73.1235 106.737 73.2707 106.766 73.4191 106.765Z" fill="#0FA3B1"/>
<path opacity="0.4" d="M73.4191 106.765H171.886C172.034 106.766 172.181 106.737 172.318 106.68C172.455 106.624 172.58 106.541 172.684 106.436C172.789 106.331 172.872 106.207 172.929 106.07C172.985 105.933 173.014 105.786 173.013 105.638C173.013 105.339 172.894 105.052 172.683 104.84C172.471 104.629 172.185 104.51 171.886 104.51H73.4191C73.1197 104.51 72.8324 104.629 72.6202 104.84C72.4079 105.051 72.288 105.338 72.2866 105.638C72.2866 105.786 72.316 105.933 72.3729 106.07C72.4299 106.207 72.5134 106.332 72.6186 106.436C72.7239 106.541 72.8488 106.624 72.9861 106.681C73.1235 106.737 73.2707 106.766 73.4191 106.765Z" fill="white"/>
<path d="M150.728 104.5V102.736H151.913L150.728 102.047H151.615L150.431 101.274H149.308V100.387H150.613L149.308 99.8706V97.9448H150.613V96.687H151.913L150.613 96.2486V95.3509H151.542L150.78 94.5942L150.123 93.9314H129.956V94.8342H128.626L130.108 95.5023V96.2486H127.389V97.6368H126.183L127.389 98.2422V99.7923H128.245V100.533H129.956V102.736H128.996L129.784 103.524V104.51L150.728 104.5Z" fill="#0FA3B1"/>
<path opacity="0.7" d="M150.728 104.5V102.736H151.913L150.728 102.047H151.615L150.431 101.274H149.308V100.387H150.613L149.308 99.8706V97.9448H150.613V96.687H151.913L150.613 96.2486V95.3509H151.542L150.78 94.5942L150.123 93.9314H129.956V94.8342H128.626L130.108 95.5023V96.2486H127.389V97.6368H126.183L127.389 98.2422V99.7923H128.245V100.533H129.956V102.736H128.996L129.784 103.524V104.51L150.728 104.5Z" fill="white"/>
<path opacity="0.1" d="M150.728 104.5V102.736H151.913L150.728 102.047H151.615L150.43 101.274H149.308V100.387H150.613L149.308 99.8706V97.9448H150.613V96.687H151.913L150.613 96.2486V95.3509H151.542L150.78 94.5942L150.122 93.9314H139.502V94.8342H138.171L139.648 95.5023V96.2486H136.929V97.6368H135.723L136.929 98.2422V99.7923H137.785V100.533H139.502V102.736H138.542L139.324 103.524V104.51L150.728 104.5Z" fill="black"/>
<path opacity="0.1" d="M130.108 96.2486H139.648L130.108 95.9041V96.2486Z" fill="black"/>
<path opacity="0.1" d="M129.957 100.533H139.502L139.544 101.201L129.957 100.533Z" fill="black"/>
<path opacity="0.1" d="M128.245 99.7923H137.785L128.245 100.126V99.7923Z" fill="black"/>
<path opacity="0.1" d="M129.957 102.736H139.502L129.957 102.386V102.736Z" fill="black"/>
<path opacity="0.1" d="M129.784 103.524H139.324V103.889L129.784 103.524Z" fill="black"/>
<path opacity="0.1" d="M127.389 97.6368H136.929L127.389 97.3341V97.6368Z" fill="black"/>
<path opacity="0.1" d="M129.957 94.8342H139.502L129.957 94.5002V94.8342Z" fill="black"/>
<path opacity="0.1" d="M150.613 95.3509H140.932L150.613 95.6484V95.3509Z" fill="black"/>
<path opacity="0.1" d="M139.648 96.2486H150.613L140.671 96.5722L139.648 96.2486Z" fill="black"/>
<path opacity="0.1" d="M136.929 97.6368L150.613 97.9447V97.6368H136.929Z" fill="black"/>
<path opacity="0.1" d="M136.929 98.2422H143.698L136.929 98.571V98.2422Z" fill="black"/>
<path opacity="0.1" d="M149.308 99.8705L139.502 99.7923L149.308 99.5731V99.8705Z" fill="black"/>
<path opacity="0.1" d="M149.308 100.387H139.324L149.308 100.721V100.387Z" fill="black"/>
<path opacity="0.1" d="M150.728 102.047H139.648V102.386L150.728 102.047Z" fill="black"/>
<path opacity="0.1" d="M150.728 102.736H142.701L150.728 102.96V102.736Z" fill="black"/>
<path d="M125.051 102.224V103.9C125.051 104.328 124.529 104.505 124.116 104.505H90.6523C90.2243 104.505 89.7076 104.328 89.7076 103.9V102.224H125.051Z" fill="#263238"/>
<path opacity="0.4" d="M125.051 102.224V103.9C125.051 104.328 124.529 104.505 124.116 104.505H90.6523C90.2243 104.505 89.7076 104.328 89.7076 103.9V102.224H125.051Z" fill="white"/>
<path opacity="0.2" d="M125.051 102.224V103.9C125.051 104.328 124.529 104.505 124.116 104.505H102.045C101.617 104.505 101.106 104.328 101.106 103.9V102.224H125.051Z" fill="black"/>
<path d="M130.651 84.8347L126.663 102.908C126.595 103.201 126.43 103.463 126.196 103.652C125.961 103.842 125.67 103.947 125.369 103.952H103.611C103.476 103.949 103.343 103.915 103.223 103.852C103.103 103.789 102.999 103.699 102.92 103.589C102.84 103.479 102.788 103.353 102.765 103.219C102.743 103.086 102.752 102.949 102.792 102.819L106.768 84.8868C106.85 84.6131 107.023 84.3757 107.259 84.2142C107.494 84.0527 107.778 83.977 108.063 83.9996H129.826C130.41 83.9787 130.776 84.2449 130.651 84.8347Z" fill="#263238"/>
<path opacity="0.4" d="M130.651 84.8347L126.663 102.908C126.595 103.201 126.43 103.463 126.196 103.652C125.961 103.842 125.67 103.947 125.369 103.952H104.347C104.212 103.949 104.079 103.915 103.959 103.852C103.839 103.789 103.735 103.699 103.656 103.589C103.576 103.479 103.523 103.353 103.501 103.219C103.479 103.086 103.488 102.949 103.528 102.819L107.51 84.8868C107.59 84.6126 107.763 84.3746 107.999 84.213C108.235 84.0513 108.519 83.976 108.804 83.9996H129.826C130.411 83.9787 130.776 84.2449 130.651 84.8347Z" fill="white"/>
<path opacity="0.2" d="M119.92 94.0201C119.92 95.5858 118.261 96.8227 117.045 96.8227C115.829 96.8227 115.108 95.5649 115.479 94.0201C115.85 92.4752 117.045 91.2697 118.224 91.2227C117.88 92.7884 118.621 94.0201 119.832 94.0201H119.92Z" fill="black"/>
</svg>
