<svg width="97" height="97" viewBox="0 0 97 97" fill="none" xmlns="http://www.w3.org/2000/svg">
<path fill-rule="evenodd" clip-rule="evenodd" d="M45.2245 0.00699694C44.9705 0.0155607 44.2703 0.0460203 43.6686 0.0747283C43.0669 0.103485 42.3339 0.148299 42.0397 0.174379C41.7456 0.200411 41.1876 0.266828 40.7999 0.321957C40.4121 0.377038 39.5478 0.531428 38.8793 0.664945C38.2107 0.79851 37.1386 1.03674 36.4968 1.19429C35.8549 1.35189 34.8682 1.61226 34.304 1.77288C33.7397 1.9335 32.9192 2.18486 32.4806 2.33147C32.042 2.47807 31.3392 2.72997 30.919 2.89132C30.4987 3.05262 29.7985 3.33644 29.3631 3.52207C28.9276 3.7077 28.1665 4.0501 27.6717 4.28293C27.177 4.5158 26.4768 4.86137 26.1158 5.05089C25.7548 5.24036 25.2078 5.53669 24.9002 5.70937C24.5927 5.88206 24.0019 6.2267 23.5874 6.47524C23.1729 6.72379 22.3936 7.22175 21.8555 7.58186C21.3174 7.94198 20.5298 8.49448 20.1051 8.80969C19.6804 9.12484 19.0157 9.63658 18.6279 9.94677C18.2402 10.257 17.6166 10.7731 17.2422 11.0937C16.8678 11.4143 16.1457 12.0635 15.6376 12.5364C15.1295 13.0093 14.3189 13.7982 13.8363 14.2895C13.3536 14.7808 12.6985 15.4674 12.3805 15.8153C12.0624 16.1632 11.5488 16.7435 11.2392 17.1047C10.9296 17.466 10.4129 18.0901 10.091 18.4915C9.76912 18.8929 9.30813 19.4841 9.06657 19.8052C8.82502 20.1264 8.36952 20.7605 8.0544 21.2144C7.73922 21.6683 7.25217 22.3998 6.9721 22.84C6.69204 23.2801 6.25988 23.9926 6.01176 24.4232C5.76368 24.8539 5.36376 25.5785 5.12303 26.0334C4.88235 26.4883 4.51034 27.2332 4.29645 27.6885C4.08251 28.1439 3.78144 28.8117 3.6274 29.1726C3.47341 29.5334 3.22733 30.1352 3.08059 30.5099C2.93385 30.8846 2.67269 31.5962 2.50028 32.0913C2.32781 32.5864 2.05835 33.4209 1.90144 33.9459C1.74454 34.4708 1.49637 35.3795 1.35001 35.9651C1.20361 36.5508 1.017 37.3475 0.93526 37.7355C0.853477 38.1236 0.721807 38.7914 0.642601 39.2196C0.563394 39.6478 0.442713 40.3813 0.374349 40.8496C0.306035 41.318 0.217687 42.0515 0.178011 42.4797C0.138384 42.9078 0.0819814 43.7399 0.052662 44.3287C0.0233425 44.9174 -0.000336735 46.7129 3.62373e-06 48.3186C0.000343982 49.9243 0.0238774 51.6978 0.052273 52.2598C0.0806686 52.8218 0.126714 53.5444 0.154624 53.8655C0.182533 54.1867 0.247298 54.7792 0.298498 55.1822C0.349698 55.5852 0.468045 56.3626 0.561547 56.9096C0.654999 57.4566 0.809571 58.2763 0.905017 58.7313C1.00046 59.1862 1.17463 59.9526 1.29205 60.4343C1.40948 60.916 1.62633 61.7262 1.7739 62.2346C1.92147 62.7431 2.17572 63.5493 2.33885 64.0263C2.50198 64.5032 2.78472 65.2805 2.9672 65.7536C3.14963 66.2267 3.43626 66.9313 3.60411 67.3194C3.77196 67.7074 4.10405 68.4406 4.3421 68.9487C4.58016 69.4567 4.97391 70.245 5.21707 70.7003C5.46018 71.1557 5.83482 71.8348 6.04949 72.2094C6.26421 72.5841 6.63583 73.2081 6.87539 73.5962C7.11491 73.9842 7.57152 74.6913 7.8901 75.1674C8.20863 75.6435 8.71207 76.3661 9.00876 76.7731C9.30551 77.1801 9.78035 77.8087 10.064 78.17C10.3475 78.5313 10.8481 79.1485 11.1761 79.5415C11.5042 79.9345 12.0836 80.6023 12.4637 81.0255C12.8438 81.4487 13.6259 82.2658 14.2018 82.8411C14.7777 83.4165 15.5973 84.2015 16.0232 84.5854C16.449 84.9694 17.129 85.5606 17.5343 85.8992C17.9396 86.2378 18.5976 86.7687 18.9965 87.0791C19.3955 87.3895 20.0501 87.8791 20.4513 88.1672C20.8524 88.4553 21.5526 88.937 22.0072 89.2376C22.4618 89.5382 23.151 89.9769 23.5388 90.2125C23.9266 90.448 24.6158 90.8491 25.0704 91.1039C25.525 91.3587 26.3456 91.7908 26.8938 92.0642C27.442 92.3376 28.1316 92.6713 28.4262 92.8057C28.7208 92.9401 29.2678 93.1809 29.6417 93.3407C30.0157 93.5005 30.7593 93.7959 31.2941 93.9971C31.829 94.1983 32.611 94.4741 33.032 94.61C33.4529 94.7459 34.0984 94.9439 34.4663 95.0499C34.8343 95.156 35.4854 95.3305 35.9133 95.4378C36.3412 95.545 36.9866 95.6981 37.3476 95.778C37.7087 95.8579 38.4343 96.0016 38.9601 96.0975C39.4859 96.1933 40.3611 96.3362 40.905 96.4149C41.4489 96.4936 42.2877 96.6019 42.7691 96.6555C43.2504 96.7091 44.0272 96.7866 44.4952 96.8278C44.9632 96.869 45.718 96.9244 46.1727 96.9511C46.6273 96.9777 47.4926 96.9998 48.0955 97C48.6984 97.0003 49.6502 96.9783 50.2106 96.9512C50.771 96.9241 51.6342 96.8688 52.1289 96.8282C52.6237 96.7876 53.4223 96.7103 53.9037 96.6564C54.385 96.6025 55.1508 96.5037 55.6055 96.4369C56.0601 96.3701 56.8149 96.2493 57.2829 96.1683C57.7509 96.0874 58.5442 95.9342 59.0458 95.8279C59.5473 95.7217 60.4335 95.5166 61.015 95.3723C61.5965 95.2279 62.5475 94.966 63.1283 94.7902C63.7091 94.6144 64.5733 94.3297 65.0489 94.1574C65.5244 93.9851 66.2307 93.7147 66.6185 93.5564C67.0063 93.3982 67.608 93.1411 67.9556 92.9851C68.3033 92.8291 69.1128 92.4357 69.7546 92.1108C70.3965 91.786 71.2279 91.3488 71.6023 91.1392C71.9767 90.9296 72.7206 90.4957 73.2555 90.1748C73.7903 89.854 74.6108 89.3399 75.0788 89.0325C75.5468 88.7251 76.2907 88.2165 76.732 87.9024C77.1732 87.5883 77.8406 87.0951 78.215 86.8063C78.5894 86.5175 79.1247 86.0821 79.4046 85.8385C79.6846 85.5949 80.1879 85.1441 80.523 84.8367C80.8581 84.5293 81.6872 83.7301 82.3653 83.0607C83.0434 82.3913 83.9878 81.4276 84.4638 80.9192C84.9399 80.4107 85.5636 79.721 85.8499 79.3864C86.1361 79.0519 86.6825 78.3622 87.0641 77.8537C87.4456 77.3453 87.9994 76.5793 88.2947 76.1516C88.5899 75.7238 89.1146 74.9246 89.4606 74.3756C89.8067 73.8265 90.2822 73.0488 90.5174 72.6474C90.7527 72.2459 91.162 71.5234 91.427 71.0417C91.692 70.56 92.1465 69.6841 92.437 69.0954C92.7274 68.5066 93.1105 67.6965 93.2883 67.295C93.466 66.8936 93.7494 66.2148 93.918 65.7866C94.0866 65.3585 94.3462 64.6359 94.4947 64.1809C94.6433 63.726 94.866 63.0034 94.9897 62.5752C95.1134 62.1471 95.3213 61.3698 95.4517 60.8479C95.5821 60.326 95.7658 59.5378 95.8599 59.0962C95.954 58.6547 96.096 57.9321 96.1755 57.4905C96.255 57.049 96.3753 56.3154 96.4428 55.8605C96.5103 55.4056 96.5985 54.7596 96.6387 54.4251C96.6791 54.0906 96.7348 53.587 96.7626 53.306C96.7904 53.025 96.847 52.3462 96.8884 51.7976C96.9298 51.249 96.9764 49.99 96.9919 48.9998C97.0092 47.9005 96.9982 46.7352 96.9637 46.0073C96.9326 45.3517 96.8745 44.4211 96.8344 43.9394C96.7944 43.4577 96.6954 42.5271 96.6145 41.8714C96.5336 41.2158 96.3918 40.2361 96.2996 39.6944C96.2072 39.1527 96.0651 38.3863 95.9838 37.9914C95.9025 37.5964 95.74 36.8774 95.6228 36.3934C95.5056 35.9095 95.3306 35.2307 95.2338 34.885C95.137 34.5394 94.938 33.8694 94.7915 33.3962C94.645 32.9231 94.3969 32.1786 94.2401 31.7419C94.0833 31.3052 93.8234 30.6175 93.6625 30.2138C93.5016 29.8101 93.2013 29.0984 92.9952 28.6324C92.789 28.1664 92.4051 27.3581 92.142 26.8363C91.8789 26.3144 91.4924 25.5809 91.2831 25.2062C91.0738 24.8316 90.6883 24.1688 90.4266 23.7336C90.1648 23.2983 89.6707 22.521 89.3286 22.0062C88.9865 21.4915 88.4273 20.6872 88.0861 20.2188C87.7448 19.7505 87.2236 19.0608 86.9279 18.6861C86.6322 18.3114 86.1701 17.7422 85.9011 17.421C85.6321 17.0999 85.1493 16.5416 84.8281 16.1804C84.507 15.8192 83.8968 15.1558 83.4722 14.7061C83.0475 14.2565 82.2927 13.5023 81.7947 13.0302C81.2967 12.5581 80.5501 11.8747 80.1356 11.5117C79.7211 11.1486 79.1522 10.6635 78.8714 10.4336C78.5906 10.2037 78.1092 9.81904 77.8017 9.57872C77.4942 9.33845 76.9143 8.90384 76.5132 8.61292C76.1121 8.32204 75.3791 7.81727 74.8843 7.49121C74.3896 7.16516 73.6566 6.70155 73.2555 6.46089C72.8543 6.22028 72.2198 5.85369 71.8454 5.64631C71.471 5.43893 70.7084 5.04072 70.1508 4.76148C69.5931 4.48218 68.7483 4.08134 68.2735 3.87065C67.7986 3.66001 67.0405 3.34072 66.5888 3.16113C66.1371 2.98153 65.4101 2.70676 64.9731 2.55057C64.5361 2.39433 63.8687 2.16876 63.4901 2.04925C63.1114 1.9298 62.4625 1.73444 62.048 1.61523C61.6334 1.49597 60.8786 1.29584 60.3705 1.17045C59.8624 1.04511 58.9106 0.836365 58.2554 0.706596C57.6002 0.576777 56.7031 0.415234 56.2619 0.347503C55.8206 0.279771 55.2189 0.201384 54.9247 0.173309C54.6306 0.145184 54.0179 0.0989111 53.5633 0.0704464C53.1087 0.0419817 51.1504 0.0125926 49.2116 0.0050993C47.2727 -0.00239397 45.4786 -0.00151814 45.2245 0.00699694ZM53.7578 1.29112C54.2392 1.31949 55.0925 1.40829 55.6541 1.48843C56.2157 1.56861 57.0362 1.70004 57.4774 1.78047C57.9187 1.8609 58.7173 2.02419 59.2522 2.14331C59.787 2.26242 60.6732 2.48226 61.2214 2.63178C61.7696 2.78131 62.798 3.09646 63.5066 3.33211C64.2153 3.56776 65.2126 3.92622 65.7228 4.12873C66.233 4.3312 66.9878 4.64513 67.4002 4.82634C67.8127 5.00754 68.5986 5.37782 69.1469 5.64918C69.6951 5.9206 70.4718 6.32309 70.873 6.54361C71.2741 6.76417 71.9743 7.16652 72.4289 7.43769C72.8835 7.70886 73.7478 8.25976 74.3495 8.66187C74.9512 9.06397 75.7389 9.61132 76.0999 9.87821C76.4609 10.1451 77.0079 10.5594 77.3155 10.799C77.623 11.0385 78.2466 11.5453 78.7012 11.9251C79.1558 12.305 79.8864 12.9401 80.3247 13.3364C80.7631 13.7329 81.563 14.4966 82.1026 15.0336C82.6421 15.5706 83.3337 16.2843 83.6395 16.6195C83.9454 16.9548 84.4118 17.4803 84.6759 17.7873C84.9401 18.0943 85.4461 18.7068 85.8003 19.1484C86.1546 19.5899 86.7238 20.3344 87.0652 20.8027C87.4066 21.271 87.9536 22.0593 88.2808 22.5544C88.6079 23.0495 89.1052 23.8377 89.3857 24.3061C89.6663 24.7744 90.0998 25.5298 90.349 25.9847C90.5981 26.4397 90.9926 27.206 91.2256 27.6878C91.4586 28.1695 91.8236 28.9687 92.0368 29.4638C92.2499 29.9589 92.5566 30.7143 92.7184 31.1424C92.8801 31.5706 93.147 32.326 93.3114 32.8211C93.4758 33.3162 93.7172 34.0935 93.8477 34.5485C93.9783 35.0034 94.1728 35.726 94.28 36.1542C94.3872 36.5824 94.5403 37.2283 94.6202 37.5896C94.7001 37.9509 94.8418 38.6625 94.9351 39.1709C95.0284 39.6794 95.1608 40.4786 95.2292 40.9469C95.2976 41.4153 95.3971 42.1926 95.4502 42.6743C95.5034 43.156 95.5803 43.9771 95.6211 44.499C95.662 45.0208 95.7176 46.1375 95.7447 46.9805C95.7782 48.0236 95.7779 48.9795 95.7439 49.9729C95.7163 50.7758 95.6607 51.8596 95.6203 52.3815C95.5798 52.9033 95.5025 53.7354 95.4484 54.2305C95.3942 54.7256 95.2862 55.5603 95.2082 56.0854C95.1302 56.6105 95.0012 57.3878 94.9216 57.8127C94.842 58.2377 94.7088 58.8919 94.6256 59.2665C94.5423 59.6412 94.4192 60.1667 94.3519 60.4343C94.2846 60.7019 94.12 61.3041 93.986 61.7724C93.852 62.2407 93.5888 63.0837 93.4011 63.6457C93.2133 64.2077 92.8529 65.1885 92.6001 65.8252C92.3472 66.462 91.9695 67.3597 91.7606 67.8202C91.5518 68.2807 91.2023 69.0141 90.984 69.4499C90.7657 69.8858 90.3987 70.5865 90.1685 71.007C89.9383 71.4275 89.5201 72.1547 89.2393 72.623C88.9585 73.0914 88.4783 73.8531 88.1723 74.3158C87.8663 74.7784 87.3847 75.4791 87.1021 75.8728C86.8196 76.2665 86.3374 76.9116 86.0305 77.3062C85.7237 77.7009 85.2222 78.3249 84.9161 78.693C84.6099 79.061 84.0022 79.7562 83.5655 80.2379C83.1288 80.7197 82.2934 81.5848 81.7089 82.1605C81.1244 82.7362 80.3507 83.4702 79.9897 83.7916C79.6287 84.1129 79.1255 84.5519 78.8714 84.7669C78.6173 84.982 78.1469 85.3667 77.826 85.6219C77.5051 85.8771 76.8815 86.3549 76.4403 86.6837C75.999 87.0125 75.1129 87.6317 74.471 88.0597C73.8292 88.4876 72.8884 89.0845 72.3803 89.3861C71.8722 89.6877 71.1501 90.1028 70.7757 90.3086C70.4013 90.5144 69.7012 90.876 69.2198 91.1121C68.7384 91.3483 68.0433 91.6749 67.675 91.8379C67.3067 92.0009 66.5956 92.2969 66.0948 92.4957C65.5939 92.6944 64.7246 93.0132 64.163 93.204C63.6015 93.3948 62.7372 93.669 62.2425 93.8134C61.7477 93.9577 60.9491 94.1741 60.4677 94.2941C59.9864 94.414 59.2315 94.5893 58.7902 94.6835C58.349 94.7778 57.6051 94.9213 57.1371 95.0025C56.6691 95.0837 55.9908 95.1931 55.6298 95.2458C55.2687 95.2983 54.5795 95.3859 54.0982 95.4403C53.6168 95.4947 52.8182 95.5717 52.3234 95.6112C51.8287 95.6508 50.7675 95.7068 49.9652 95.7356C48.9402 95.7725 48.0497 95.7731 46.9698 95.7377C46.1246 95.7099 45.0197 95.6541 44.5144 95.6136C44.0091 95.5732 43.3003 95.5077 42.9393 95.4682C42.5782 95.4287 42.0422 95.3642 41.748 95.3249C41.4538 95.2856 40.9834 95.2189 40.7026 95.1766C40.4218 95.1343 39.8857 95.0445 39.5114 94.9772C39.137 94.9098 38.4696 94.7776 38.0284 94.6835C37.5871 94.5893 36.8322 94.414 36.3509 94.2941C35.8695 94.1742 35.1475 93.9796 34.7463 93.8618C34.3452 93.7439 33.5575 93.4916 32.9959 93.301C32.4343 93.1104 31.5701 92.7935 31.0753 92.597C30.5806 92.4004 29.8695 92.1042 29.4951 91.9387C29.1207 91.7733 28.333 91.4012 27.7447 91.1118C27.1563 90.8225 26.3687 90.4175 25.9943 90.2117C25.6199 90.0059 24.9474 89.6195 24.4999 89.3531C24.0525 89.0866 23.232 88.5674 22.6766 88.1993C22.1212 87.8313 21.3824 87.3257 21.0347 87.0759C20.6871 86.826 20.1729 86.4454 19.8921 86.23C19.6113 86.0146 19.0971 85.6081 18.7495 85.3267C18.4018 85.0453 17.8658 84.5963 17.5582 84.3288C17.2507 84.0614 16.6258 83.4987 16.1697 83.0783C15.7135 82.6579 14.9864 81.9497 14.5538 81.5046C14.1212 81.0594 13.4873 80.3843 13.145 80.0043C12.8027 79.6243 12.2924 79.0398 12.0109 78.7052C11.7295 78.3707 11.2915 77.8343 11.0376 77.5131C10.7837 77.192 10.3484 76.6227 10.0701 76.248C9.79193 75.8734 9.21176 75.0413 8.78092 74.399C8.35007 73.7568 7.78911 72.8809 7.53433 72.4527C7.27959 72.0246 6.90043 71.3682 6.69179 70.9941C6.4832 70.6201 6.04662 69.7771 5.72167 69.1208C5.39668 68.4645 5.02491 67.6867 4.89548 67.3923C4.76605 67.098 4.4799 66.4082 4.25964 65.8596C4.03938 65.311 3.71244 64.4352 3.53312 63.9133C3.3538 63.3915 3.06902 62.4828 2.9002 61.894C2.73143 61.3053 2.47986 60.3419 2.34109 59.7531C2.20237 59.1644 2.0353 58.4199 1.96985 58.0988C1.90441 57.7776 1.79734 57.1974 1.73185 56.8093C1.6664 56.4213 1.5694 55.7425 1.51635 55.3009C1.46325 54.8594 1.39679 54.2134 1.36859 53.8655C1.34043 53.5176 1.29619 52.7075 1.27037 52.0652C1.2445 51.4229 1.22306 49.8793 1.22267 48.6348C1.22228 47.3904 1.24382 45.8249 1.27047 45.1558C1.29711 44.4868 1.35186 43.5453 1.39212 43.0636C1.43238 42.5818 1.51047 41.8264 1.56565 41.3849C1.62084 40.9433 1.74157 40.155 1.8339 39.6332C1.92629 39.1113 2.0899 38.2902 2.19755 37.8085C2.30516 37.3268 2.46999 36.6262 2.56383 36.2515C2.65767 35.8768 2.8226 35.2637 2.93039 34.8891C3.03819 34.5144 3.27926 33.7481 3.46617 33.1861C3.65307 32.6241 4.01322 31.6433 4.26645 31.0065C4.51967 30.3698 4.89981 29.4673 5.11117 29.0008C5.32248 28.5344 5.67067 27.8073 5.8848 27.385C6.09899 26.9628 6.44187 26.3107 6.64677 25.9361C6.85167 25.5614 7.17413 24.9921 7.36332 24.671C7.55251 24.3498 7.91227 23.7621 8.16278 23.3649C8.41333 22.9677 8.83173 22.3328 9.09264 21.9539C9.3535 21.575 9.68359 21.1007 9.82621 20.9C9.96877 20.6993 10.1845 20.4037 10.3055 20.2432C10.4265 20.0826 10.7234 19.6994 10.9653 19.3916C11.2072 19.0839 11.6235 18.5693 11.8904 18.2482C12.1573 17.927 12.5386 17.4782 12.7377 17.2507C12.9368 17.0232 13.5046 16.4045 13.9993 15.8756C14.4941 15.3468 15.3495 14.4906 15.9003 13.9729C16.4512 13.4552 17.0878 12.8688 17.3151 12.6697C17.5424 12.4706 17.991 12.0883 18.3119 11.8202C18.6328 11.552 19.147 11.1356 19.4545 10.8949C19.762 10.6542 20.2653 10.2717 20.5728 10.0448C20.8804 9.81802 21.4164 9.43333 21.7641 9.18995C22.1117 8.94661 22.79 8.49682 23.2714 8.19042C23.7528 7.88403 24.3972 7.48479 24.7033 7.3032C25.0096 7.12166 25.5566 6.80816 25.9189 6.60657C26.2813 6.40498 27.1138 5.97465 27.769 5.6503C28.4242 5.3259 29.2884 4.92073 29.6896 4.74985C30.0907 4.57901 30.8018 4.29149 31.2698 4.11097C31.7378 3.9305 32.5146 3.6479 32.9959 3.48305C33.4773 3.31819 34.2301 3.07427 34.6689 2.94105C35.1077 2.80782 35.8735 2.59081 36.3707 2.4588C36.8679 2.32684 37.6139 2.14243 38.0284 2.04896C38.4429 1.95554 39.143 1.81341 39.5843 1.73308C40.0255 1.65274 40.7038 1.54346 41.0916 1.49023C41.4794 1.43699 42.1576 1.36863 42.5989 1.33827C43.0401 1.30791 44.0466 1.2648 44.8355 1.24241C45.6244 1.22003 47.7578 1.21025 49.5762 1.22066C51.3947 1.23103 53.2764 1.26275 53.7578 1.29112ZM34.5275 26.1387C34.3537 26.1462 33.9052 26.1765 33.5308 26.206C33.1564 26.2355 32.7051 26.29 32.5279 26.327C32.3507 26.3641 32.0335 26.4525 31.8229 26.5234C31.6123 26.5943 31.1556 26.7906 30.8079 26.9596C30.4602 27.1286 29.9699 27.4013 29.7182 27.5657C29.4665 27.7301 29.1048 27.992 28.9145 28.1477C28.7241 28.3033 28.335 28.6745 28.0496 28.9724C27.7644 29.2703 27.3676 29.7311 27.1679 29.9964C26.9682 30.2617 26.7122 30.6374 26.5991 30.8313C26.4859 31.0252 26.3002 31.3825 26.1865 31.6254C26.0727 31.8682 25.9246 32.2336 25.8573 32.4374C25.79 32.6412 25.6909 33.0134 25.6369 33.2646C25.583 33.5158 25.5155 33.9339 25.487 34.1938C25.4584 34.4536 25.4351 34.9902 25.4351 35.3862C25.4351 35.7821 25.4679 36.387 25.5081 36.7303C25.5482 37.0737 25.6243 37.5621 25.6773 37.8158C25.7302 38.0694 25.8509 38.511 25.9454 38.797C26.0401 39.0829 26.2381 39.5578 26.3855 39.8522C26.533 40.1465 26.7999 40.5954 26.9787 40.8496C27.1733 41.1264 27.5872 41.5952 28.0104 42.0181C28.3991 42.4065 28.9358 42.8882 29.2031 43.0886C29.4704 43.2889 29.9117 43.5867 30.1838 43.7504C30.4559 43.9141 30.8717 44.1292 31.1079 44.2283C31.344 44.3274 31.7232 44.4627 31.9505 44.5291C32.1778 44.5955 32.6154 44.6937 32.923 44.7474C33.2711 44.8082 33.8217 44.8555 34.3817 44.8728C34.8764 44.8881 35.6609 44.8756 36.1251 44.8451C36.5893 44.8146 37.1335 44.7556 37.3345 44.7141C37.5355 44.6725 37.8559 44.583 38.0465 44.5153C38.2371 44.4474 38.6289 44.2748 38.9172 44.1316C39.2055 43.9884 39.6137 43.7687 39.8244 43.6433C40.0351 43.5179 40.4002 43.2704 40.6358 43.0934C40.8713 42.9164 41.2811 42.5636 41.5464 42.3094C41.8116 42.0551 42.1539 41.6938 42.3069 41.5065C42.4599 41.3192 42.7051 40.9895 42.8518 40.7738C42.9985 40.5582 43.2225 40.1908 43.3496 39.9574C43.4768 39.7239 43.6677 39.3202 43.774 39.06C43.8802 38.7999 44.0313 38.3588 44.1096 38.0798C44.188 37.8007 44.2846 37.3956 44.3243 37.1796C44.364 36.9635 44.4166 36.5284 44.4411 36.2127C44.4672 35.8753 44.468 35.3592 44.4432 34.9606C44.4198 34.5876 44.3461 34.0126 44.2794 33.6828C44.2126 33.353 44.0794 32.8545 43.9832 32.575C43.887 32.2956 43.6786 31.7965 43.52 31.4658C43.3613 31.1352 43.093 30.6535 42.9235 30.3954C42.7541 30.1372 42.4815 29.7597 42.3176 29.5565C42.1537 29.3532 41.8381 29.0028 41.6164 28.7779C41.3946 28.553 41.049 28.2352 40.8485 28.0717C40.6479 27.9082 40.2926 27.6497 40.0588 27.4972C39.8251 27.3447 39.4093 27.1129 39.135 26.9821C38.8606 26.8512 38.4392 26.6785 38.1985 26.5982C37.9579 26.5179 37.4874 26.3974 37.1532 26.3305C36.8189 26.2635 36.2511 26.1857 35.8914 26.1576C35.5317 26.1295 35.1488 26.1106 35.0405 26.1158C34.9322 26.1209 34.7014 26.1313 34.5275 26.1387ZM62.9232 26.136C62.7493 26.145 62.3008 26.1765 61.9264 26.206C61.552 26.2355 61.1007 26.29 60.9236 26.327C60.7464 26.3641 60.4291 26.4531 60.2185 26.5248C60.0079 26.5965 59.6118 26.7599 59.3382 26.8879C59.0645 27.0158 58.6492 27.2363 58.4151 27.3778C58.181 27.5193 57.7813 27.792 57.5268 27.9839C57.2723 28.1758 56.8233 28.5818 56.5289 28.8861C56.2346 29.1905 55.8491 29.6255 55.6721 29.853C55.4952 30.0805 55.2519 30.4199 55.1315 30.6072C55.0111 30.7945 54.803 31.1668 54.6691 31.4344C54.5352 31.702 54.3597 32.118 54.2792 32.3589C54.1987 32.5997 54.0881 33.0048 54.0336 33.2591C53.9791 33.5133 53.9112 33.9339 53.8826 34.1938C53.8541 34.4536 53.831 35.012 53.8312 35.4346C53.8315 35.8571 53.8547 36.465 53.8828 36.7854C53.9109 37.1058 53.964 37.5112 54.0008 37.6863C54.0376 37.8614 54.1264 38.1686 54.1982 38.3689C54.2699 38.5691 54.4643 39.0177 54.6302 39.3656C54.7961 39.7135 55.056 40.1985 55.2078 40.4434C55.3596 40.6882 55.6339 41.0824 55.8172 41.3192C56.0006 41.556 56.3236 41.925 56.5349 42.1391C56.7463 42.3532 57.0831 42.6621 57.2834 42.8255C57.4837 42.989 57.8227 43.2376 58.0366 43.378C58.2505 43.5184 58.71 43.7714 59.0577 43.9403C59.4053 44.1092 59.9304 44.3238 60.2246 44.4173C60.5188 44.5108 60.9673 44.6313 61.2214 44.685C61.4754 44.7387 61.8912 44.8098 62.1452 44.8429C62.3993 44.876 62.99 44.9017 63.458 44.8999C63.9835 44.8979 64.5135 44.866 64.8438 44.8164C65.1379 44.7723 65.5974 44.6812 65.8648 44.6139C66.1323 44.5467 66.5702 44.4061 66.8379 44.3015C67.1056 44.1969 67.5201 44.0107 67.7589 43.8878C67.9978 43.7648 68.3585 43.5538 68.5606 43.4189C68.7627 43.2839 69.1271 43.0125 69.3703 42.8158C69.6136 42.6191 70.0312 42.231 70.2983 41.9534C70.5655 41.6758 70.9195 41.2707 71.085 41.0532C71.2505 40.8356 71.4963 40.4764 71.6313 40.2549C71.7664 40.0334 71.9761 39.6446 72.0975 39.391C72.2188 39.1373 72.402 38.6775 72.5046 38.3692C72.6071 38.0608 72.735 37.5896 72.7887 37.322C72.8424 37.0543 72.9098 36.5597 72.9384 36.2228C72.9749 35.7928 72.9753 35.411 72.9398 34.9423C72.9119 34.5749 72.8339 34.0126 72.7663 33.6925C72.6988 33.3725 72.5668 32.8868 72.473 32.6132C72.3792 32.3395 72.1724 31.8482 72.0135 31.5213C71.8545 31.1945 71.5494 30.667 71.3353 30.349C71.1212 30.0312 70.7429 29.5435 70.4944 29.2654C70.246 28.9873 69.8357 28.5768 69.5827 28.3533C69.3296 28.1298 68.8949 27.7941 68.6167 27.6072C68.3384 27.4204 67.9148 27.1691 67.6752 27.0487C67.4356 26.9283 67.0615 26.764 66.8439 26.6837C66.6264 26.6034 66.2478 26.4856 66.0028 26.4219C65.7578 26.3581 65.3202 26.2736 65.0304 26.2341C64.7405 26.1945 64.219 26.1525 63.8713 26.1408C63.5237 26.1292 63.097 26.127 62.9232 26.136ZM46.4401 64.0633C46.1325 64.0846 45.6163 64.1581 45.2928 64.2268C44.9693 64.2955 44.429 64.4273 44.0919 64.5197C43.755 64.6122 43.1887 64.7895 42.8336 64.9137C42.4786 65.038 41.8812 65.2704 41.5061 65.4303C41.131 65.5901 40.5354 65.8722 40.1825 66.0572C39.8296 66.2422 39.3483 66.5066 39.1128 66.6447C38.8774 66.7829 38.3894 67.0925 38.0284 67.3327C37.6673 67.573 37.0875 67.9839 36.7399 68.2458C36.3922 68.5077 35.8671 68.9233 35.5729 69.1694C35.2788 69.4154 34.7318 69.8966 34.3574 70.2386C33.983 70.5807 33.1508 71.394 32.5081 72.0459C31.8654 72.6979 31.0916 73.5158 30.7885 73.8635C30.4853 74.2112 30.079 74.7059 29.8856 74.9628C29.6923 75.2197 29.4732 75.5543 29.3989 75.7063C29.2939 75.921 29.2697 76.0266 29.2902 76.1796C29.3047 76.288 29.3736 76.4628 29.4433 76.5681C29.5129 76.6735 29.6605 76.8254 29.7713 76.9057C29.8821 76.986 30.0547 77.0763 30.1549 77.1063C30.2552 77.1364 30.3993 77.1459 30.4753 77.1274C30.5617 77.1063 30.8236 76.881 31.1752 76.5249C31.4843 76.2121 32.129 75.5182 32.608 74.9829C33.0869 74.4477 33.764 73.7177 34.1126 73.3608C34.4612 73.0039 35.0417 72.4416 35.4027 72.1113C35.7638 71.781 36.2998 71.3102 36.594 71.0651C36.8882 70.82 37.3805 70.4274 37.688 70.1926C37.9955 69.9579 38.5754 69.5462 38.9765 69.2779C39.3776 69.0096 40.0012 68.6199 40.3623 68.4118C40.7233 68.2038 41.3031 67.8972 41.6508 67.7307C41.9984 67.5641 42.4798 67.3459 42.7205 67.2458C42.9611 67.1458 43.3769 66.9891 43.6443 66.8977C43.9117 66.8063 44.3821 66.6674 44.6897 66.5891C44.9972 66.5107 45.4567 66.4137 45.7107 66.3736C45.9648 66.3335 46.5227 66.2752 46.9506 66.2441C47.4204 66.21 48.1716 66.199 48.8469 66.2164C49.462 66.2323 50.2488 66.2796 50.5955 66.3217C50.9421 66.3638 51.3904 66.4323 51.5916 66.4739C51.7928 66.5155 52.2036 66.6242 52.5045 66.7155C52.8053 66.8067 53.3353 66.9921 53.6822 67.1274C54.0291 67.2626 54.6803 67.5565 55.1293 67.7803C55.5784 68.0043 56.2193 68.3509 56.5536 68.5507C56.8879 68.7506 57.4458 69.1052 57.7935 69.3387C58.1411 69.5723 58.71 69.9774 59.0577 70.2388C59.4053 70.5003 59.973 70.9515 60.3192 71.2414C60.6654 71.5314 61.2124 72.013 61.5347 72.3116C61.8571 72.6102 62.4829 73.224 62.9255 73.6755C63.368 74.1269 64.1144 74.9233 64.5841 75.4452C65.0539 75.967 65.6016 76.5514 65.8012 76.7438C66.0009 76.9361 66.2247 77.1087 66.2986 77.1272C66.3724 77.1458 66.5208 77.1346 66.6284 77.1023C66.7517 77.0654 66.9282 76.9416 67.106 76.7675C67.3022 76.5753 67.4038 76.4316 67.4399 76.2951C67.4752 76.1615 67.4762 76.0428 67.4431 75.9228C67.4164 75.8259 67.2838 75.5769 67.1484 75.3694C67.0131 75.162 66.7787 74.8369 66.6275 74.647C66.4764 74.4571 66.1226 74.0391 65.8414 73.7182C65.5601 73.3972 64.8596 72.6634 64.2846 72.0874C63.7096 71.5115 62.8933 70.7287 62.4704 70.3479C62.0475 69.967 61.4239 69.4229 61.0846 69.1387C60.7454 68.8545 60.1833 68.4088 59.8356 68.1482C59.488 67.8877 59.0066 67.543 58.7659 67.3823C58.5252 67.2217 58.0111 66.8984 57.6233 66.6641C57.2355 66.4298 56.5025 66.0345 55.9944 65.7856C55.4863 65.5368 54.8071 65.2342 54.485 65.1131C54.163 64.992 53.6488 64.817 53.3424 64.7243C53.036 64.6315 52.5337 64.4996 52.2262 64.4312C51.9186 64.3628 51.3607 64.2631 50.9863 64.2096C50.6119 64.1561 49.9702 64.0895 49.5602 64.0615C49.1503 64.0336 48.4063 64.0138 47.907 64.0177C47.4078 64.0215 46.7476 64.0421 46.4401 64.0633Z" fill="#137E8B"/>
</svg>
