<svg width="20" height="20" viewBox="0 0 20 20" fill="none" xmlns="http://www.w3.org/2000/svg">
<path d="M10 0C15.523 0 20 4.477 20 10C20 15.523 15.523 20 10 20C4.477 20 0 15.523 0 10C0 4.477 4.477 0 10 0ZM10 2C7.87827 2 5.84344 2.84285 4.34315 4.34315C2.84285 5.84344 2 7.87827 2 10C2 12.1217 2.84285 14.1566 4.34315 15.6569C5.84344 17.1571 7.87827 18 10 18C12.1217 18 14.1566 17.1571 15.6569 15.6569C17.1571 14.1566 18 12.1217 18 10C18 7.87827 17.1571 5.84344 15.6569 4.34315C14.1566 2.84285 12.1217 2 10 2ZM13.833 5.337C13.9477 5.25654 14.0871 5.21915 14.2267 5.2314C14.3663 5.24366 14.4971 5.30478 14.596 5.404C14.6947 5.50274 14.7553 5.63329 14.7668 5.77245C14.7783 5.91161 14.7401 6.05035 14.659 6.164C12.479 9.21 11.279 10.842 11.061 11.061C10.7794 11.342 10.3978 11.4999 10 11.4999C9.60217 11.4999 9.22059 11.342 8.939 11.061C8.65798 10.7794 8.50015 10.3978 8.50015 10C8.50015 9.60217 8.65798 9.22059 8.939 8.939C9.313 8.566 10.944 7.365 13.833 5.337ZM15.5 9C15.7652 9 16.0196 9.10536 16.2071 9.29289C16.3946 9.48043 16.5 9.73478 16.5 10C16.5 10.2652 16.3946 10.5196 16.2071 10.7071C16.0196 10.8946 15.7652 11 15.5 11C15.2348 11 14.9804 10.8946 14.7929 10.7071C14.6054 10.5196 14.5 10.2652 14.5 10C14.5 9.73478 14.6054 9.48043 14.7929 9.29289C14.9804 9.10536 15.2348 9 15.5 9ZM4.5 9C4.76522 9 5.01957 9.10536 5.20711 9.29289C5.39464 9.48043 5.5 9.73478 5.5 10C5.5 10.2652 5.39464 10.5196 5.20711 10.7071C5.01957 10.8946 4.76522 11 4.5 11C4.23478 11 3.98043 10.8946 3.79289 10.7071C3.60536 10.5196 3.5 10.2652 3.5 10C3.5 9.73478 3.60536 9.48043 3.79289 9.29289C3.98043 9.10536 4.23478 9 4.5 9ZM6.818 5.404C7.00551 5.59177 7.11074 5.84634 7.11056 6.11171C7.11037 6.37707 7.00477 6.63149 6.817 6.819C6.62923 7.00651 6.37466 7.11174 6.10929 7.11156C5.84393 7.11137 5.58951 7.00577 5.402 6.818C5.30916 6.72502 5.23553 6.61467 5.18534 6.49324C5.13514 6.37181 5.10935 6.24169 5.10944 6.11029C5.10954 5.9789 5.13551 5.84881 5.18588 5.72745C5.23625 5.60609 5.31002 5.49584 5.403 5.403C5.59077 5.21549 5.84534 5.11026 6.11071 5.11044C6.2421 5.11054 6.37219 5.13651 6.49355 5.18688C6.61491 5.23725 6.72516 5.31102 6.818 5.404ZM10 3.5C10.2652 3.5 10.5196 3.60536 10.7071 3.79289C10.8946 3.98043 11 4.23478 11 4.5C11 4.76522 10.8946 5.01957 10.7071 5.20711C10.5196 5.39464 10.2652 5.5 10 5.5C9.73478 5.5 9.48043 5.39464 9.29289 5.20711C9.10536 5.01957 9 4.76522 9 4.5C9 4.23478 9.10536 3.98043 9.29289 3.79289C9.48043 3.60536 9.73478 3.5 10 3.5Z" fill="white"/>
</svg>
